<?xml version="1.0" encoding="iso-8859-1"?>
<!-- Uploaded to: SVG Repo, www.svgrepo.com, Generator: SVG Repo Mixer Tools -->
<svg height="800px" width="800px" version="1.1" id="Layer_1" xmlns="http://www.w3.org/2000/svg" xmlns:xlink="http://www.w3.org/1999/xlink" 
	 viewBox="0 0 512 512" xml:space="preserve">
<circle style="fill:#FFC61B;" cx="256" cy="256" r="256"/>
<path style="fill:#EAA22F;" d="M273.494,511.393c117.42-7.927,213.123-95.017,234.175-208.348L356.509,151.885l-11.317,13.903
	l-49.929-49.929L210.029,325.53l31.184,31.184l-70.546,51.852L273.494,511.393z"/>
<path style="fill:#386895;" d="M216.528,170.667h78.945c8.847,0,15.338-8.314,13.193-16.896l-7.423-29.693
	c-1.514-6.054-6.953-10.3-13.193-10.3h-64.098c-6.241,0-11.679,4.246-13.193,10.3l-7.423,29.693
	C201.19,162.352,207.681,170.667,216.528,170.667z"/>
<path style="fill:#273B7A;" d="M308.665,153.771l-7.423-29.693c-1.514-6.054-6.953-10.3-13.193-10.3h-33.197v56.889h40.62
	C304.319,170.667,310.81,162.352,308.665,153.771z"/>
<polygon style="fill:#38C6D9;" points="383.569,295.469 128.431,295.469 155.491,151.885 356.509,151.885 "/>
<polygon style="fill:#02B2B2;" points="356.509,151.885 254.852,151.885 254.852,295.469 383.569,295.469 "/>
<polygon style="fill:#273B7A;" points="256,237.899 113.778,286.661 170.667,408.566 256,408.566 341.333,408.566 398.222,286.661 
	"/>
<polygon style="fill:#386895;" points="256,237.899 256,408.566 170.667,408.566 113.778,286.661 "/>
<polygon style="fill:#273B7A;" points="256,237.899 256,408.566 341.333,408.566 398.222,286.661 "/>
<g>
	<path style="fill:#386895;" d="M341.333,185.32H170.667c-2.381,0-4.31-1.929-4.31-4.31s1.929-4.31,4.31-4.31h170.667
		c2.381,0,4.31,1.929,4.31,4.31S343.714,185.32,341.333,185.32z"/>
	<path style="fill:#386895;" d="M341.333,213.764H170.667c-2.381,0-4.31-1.929-4.31-4.31s1.929-4.31,4.31-4.31h170.667
		c2.381,0,4.31,1.929,4.31,4.31S343.714,213.764,341.333,213.764z"/>
</g>
<g>
	<path style="fill:#273B7A;" d="M341.333,176.7h-86.481v8.62h86.481c2.381,0,4.31-1.929,4.31-4.31S343.714,176.7,341.333,176.7z"/>
	<path style="fill:#273B7A;" d="M341.333,205.145h-86.481v8.62h86.481c2.381,0,4.31-1.929,4.31-4.31
		S343.714,205.145,341.333,205.145z"/>
</g>
</svg>